# xmcd
#
# Track frame offsets:
#	150
#	13392
#	25835
#	40157
#	52112
#	65695
#	81505
#	97175
#	111722
#	122262
#
# Disc length: 1775 seconds
#
# Revision: 3
# Processed by: cddbd v1.5.2PL0 Copyright (c) Steve Scherf et al.
# Submitted via: audiograbber 1.83.01
#
DISCID=9106ed0a
DTITLE=George Strait - Beyond The Blue Neon
DYEAR=1989
DGENRE=Oldies
TTITLE0=Beyond The Blue Neon
TTITLE1=Hollywood Squares
TTITLE2=Overnight Success
TTITLE3=Ace In The Hole
TTITLE4=Leavin's Been Coming (For A Long, Long Time)
TTITLE5=Baby's Gotten Good At Goodbye
TTITLE6=What's Going On In Your World
TTITLE7=Angel, Angelina
TTITLE8=Too Much Of Too Little
TTITLE9=Oh Me, Oh My Sweet Baby
EXTD=
EXTT0=
EXTT1=
EXTT2=
EXTT3=
EXTT4=
EXTT5=
EXTT6=
EXTT7=
EXTT8=
EXTT9=
PLAYORDER=
